# xmcd
#
# Track frame offsets:
# 150
# 22055
# 37932
# 54842
# 74892
# 94257
# 109537
# 126545
# 139955
# 162532
# 181307
# 199695
# 213542
# 233487
# 253195
#
# Disc length: 3648 seconds
#
#
# Revision: 0
# Processed by: cddbd v1.4PL0 Copyright (c) Steve Scherf et al.
# Submitted via: FreeRIP 2.53 
#
DISCID=e10e3e0f
DTITLE=Lee Gi Chan - natural
DYEAR=2003
DGENRE=Pop
TTITLE0=Please
TTITLE1=Again and again
TTITLE2=Become insane love
TTITLE3=Aspiration
TTITLE4=Glass
TTITLE5=I love you
TTITLE6=In this way
TTITLE7=Be careful
TTITLE8=Could put you out of my mind
TTITLE9=Dreamlike you
TTITLE10=My letter
TTITLE11=A dance tree
TTITLE12=Thankful
TTITLE13=12,000 ft
TTITLE14=A second time love is gone
EXTD=
EXTT0=
EXTT1=
EXTT2=
EXTT3=
EXTT4=
EXTT5=
EXTT6=
EXTT7=
EXTT8=
EXTT9=
EXTT10=
EXTT11=
EXTT12=
EXTT13=
EXTT14=
PLAYORDER=
